<!DOCTYPE svg PUBLIC "-//W3C//DTD SVG 1.1//EN" "http://www.w3.org/Graphics/SVG/1.1/DTD/svg11.dtd">

<!-- Uploaded to: SVG Repo, www.svgrepo.com, Transformed by: SVG Repo Mixer Tools -->
<svg fill="#ef141b" height="64" width="64" version="1.1" id="Layer_1" xmlns="http://www.w3.org/2000/svg" xmlns:xlink="http://www.w3.org/1999/xlink" viewBox="-50.4 -50.4 415.80 415.80" xml:space="preserve" stroke="#ef141b" transform="rotate(0)" stroke-width="0.00315">

<g id="SVGRepo_bgCarrier" stroke-width="0">

<path transform="translate(-50.4, -50.4), scale(12.99375)" d="M16,31.354318174932686C19.080456878065608,31.658291160991613,21.503863558957775,28.800669355380613,23.762054707886932,26.683551765643728C25.766815675901068,24.804032084321204,27.177152102252734,22.517142617276907,28.16233937323578,19.951783614633285C29.200166956563553,17.249352906789124,30.06277020151341,14.445473595302463,29.556497306910792,11.595227013056334C28.99815473723066,8.451835340463543,27.92943586162094,4.9957930857213695,25.209001240243428,3.3248971873323363C22.527647857607736,1.6780050569458609,19.112175888572082,2.8037523388515533,16,3.2688016806330005C13.354465665730114,3.664121239958072,10.908441562669314,4.465176347651388,8.594750269246115,5.807548154016322C6.018623276928433,7.302181536582464,3.186317936318466,8.727444034015402,1.9340237562612241,11.429687271665117C0.6104777283211009,14.285680185052172,0.24472445403578136,17.85945476238941,1.7212364406368987,20.639451518289746C3.1401853608525823,23.31106775356894,6.856898668251249,23.43848438610636,9.27647020856341,25.254144846682635C11.757632848208745,27.11602362398132,12.91293598113622,31.049693210158516,16,31.354318174932686" fill="#3A3A38" strokewidth="0"/>

</g>

<g id="SVGRepo_tracerCarrier" stroke-linecap="round" stroke-linejoin="round"/>

<g id="SVGRepo_iconCarrier"> <g id="XMLID_5_"> <path id="XMLID_6_" d="M264.467,135.355c-2.688-0.92-5.289-1.773-7.787-2.594C236.855,126.26,230,123.449,230,112.41 c0-9.572,6.799-16.26,16.533-16.26c7.986,0,13.502,3.307,19.039,11.41c2.156,3.158,6.348,4.188,9.721,2.389l19.148-10.205 c1.762-0.938,3.076-2.541,3.652-4.453c0.576-1.91,0.367-3.973-0.582-5.729c-11.123-20.596-27.912-31.037-49.9-31.037 c-16.592,0-30.648,5.227-40.654,15.117c-9.918,9.803-15.16,23.453-15.16,39.471c0,33.607,21.297,47.508,58.063,60.156 c21.045,7.311,25.965,10.137,25.965,21.121c0,13.578-11.727,23.434-27.885,23.434c-0.486,0-0.98-0.008-1.48-0.025 c-17.377-0.607-22.725-9.088-30.789-28.297c-12.947-30.814-28.082-67.734-29.205-70.543c-0.012-0.031-0.025-0.064-0.037-0.096 c-16.416-39.535-49.057-62.209-89.555-62.209C43.457,56.654,0,101.9,0,157.518c0,55.598,43.457,100.828,96.873,100.828 c29.217,0,56.559-13.49,75.016-37.014c1.674-2.133,2.064-5.004,1.025-7.508l-11.541-27.781c-1.125-2.711-3.729-4.514-6.66-4.619 c-2.945-0.105-5.654,1.512-6.971,4.135c-9.977,19.9-29.469,32.262-50.869,32.262c-31.658,0-57.414-27.053-57.414-60.303 c0-33.26,25.756-60.32,57.414-60.32c23.029,0,44.1,14.273,52.432,35.516c0.023,0.055,0.045,0.111,0.068,0.166l28.574,67.982 l3.293,7.617c13.811,33.602,34.273,48.652,66.359,48.797h0.133c38.348,0,67.268-26.699,67.268-62.103 C315,159.674,295.66,145.965,264.467,135.355z"/> </g> </g>

</svg>